# xmcd CD database file
#
# Track frame offsets:
#	150
#	13967
#	32472
#	45023
#	65227
#	78374
#	93584
#	112681
#	126333
#	145443
#	163041
#	180467
#	193707
#	211140
#
# Disc length: 3051 seconds
#
# Revision: 0
# Processed by: cddbd v1.5.2PL0 Copyright (c) Steve Scherf et al.
# Submitted via: CDex 1.51
#
DISCID=b90be90e
DTITLE=TRUDI LALOR - MY IRELAND
DYEAR=1900
DGENRE=Country
TTITLE0=MY IRELAND 
TTITLE1=LOVELY LAOIS
TTITLE2=TIPPERARY CALLING ME
TTITLE3=DUNGARVAN MY HOMETOWN
TTITLE4=ACHILL ISLAND HOME
TTITLE5=LAND WHERE THE SLANEY FLOWS
TTITLE6=ROSE OF MOONCIN
TTITLE7=KILLARNEY IN MY DREAMS
TTITLE8=FROM AN ISLAND TO AN ISLAND
TTITLE9=LOUGH SHEELIN SHORE
TTITLE10=SPRIG OF IRISH HEATER
TTITLE11=LOVING ARMS OF CO.DOWN
TTITLE12=WE'LL MEET AGAIN IN SPANCILL HILL
TTITLE13=DANNY BOY
EXTD=
EXTT0=
EXTT1=
EXTT2=
EXTT3=
EXTT4=
EXTT5=
EXTT6=
EXTT7=
EXTT8=
EXTT9=
EXTT10=
EXTT11=
EXTT12=
EXTT13=
PLAYORDER=
